# xmcd
#
# Track frame offsets: 
#        150
#        20890
#        39276
#        60549
#        81922
#        107584
#        128688
#        152188
#        174208
#        199103
#        224881
#        241463
#
# Disc length: 3548 seconds
#
# Revision: 3
# Processed by: cddbd v1.5.2PL0 Copyright (c) Steve Scherf et al.
# Submitted via: ExactAudioCopy v0.95a5
#
DISCID=a40dda0c
DTITLE=Gregg Karukas - k-Heatwave
DYEAR=2002
DGENRE=Fusion
TTITLE0=Uptown Rendezvous
TTITLE1=Your Sweet Smile
TTITLE2=Riverside Drive
TTITLE3=Too Cool (To Be Hot)
TTITLE4=Healing Song
TTITLE5=Heatwave
TTITLE6=Penthouse View
TTITLE7=Brooklyn Nights
TTITLE8=Home To You
TTITLE9=Last Train
TTITLE10=Remember When
TTITLE11=I Meant What I Said
EXTD=
EXTT0=
EXTT1=
EXTT2=
EXTT3=
EXTT4=
EXTT5=
EXTT6=
EXTT7=
EXTT8=
EXTT9=
EXTT10=
EXTT11=
PLAYORDER=
